<svg xmlns="http://www.w3.org/2000/svg" width="50" height="50" viewBox="0 0 50 50">
    <g data-name="Group 243" transform="translate(-253 -696)">
        <rect data-name="Rectangle 123" width="50" height="50" rx="10" transform="translate(253 696)" style="fill:#fff"/>
        <path data-name="Icon awesome-apple" d="M18.286 15.792a5.341 5.341 0 0 1 2.861-4.852A6.147 6.147 0 0 0 16.3 8.389c-2.031-.16-4.251 1.184-5.063 1.184-.858 0-2.826-1.127-4.371-1.127C3.674 8.5.281 10.992.281 16.067a14.259 14.259 0 0 0 .824 4.646c.732 2.1 3.375 7.249 6.133 7.163 1.442-.034 2.46-1.024 4.337-1.024 1.819 0 2.763 1.024 4.371 1.024 2.78-.04 5.172-4.72 5.87-6.825a5.671 5.671 0 0 1-3.53-5.258zM15.048 6.4a5.388 5.388 0 0 0 1.373-4.15 6.066 6.066 0 0 0-3.885 2 5.473 5.473 0 0 0-1.465 4.11 4.8 4.8 0 0 0 3.977-1.96z" transform="translate(266.719 705.75)" style="fill:#002333"/>
    </g>
</svg>
