<svg xmlns="http://www.w3.org/2000/svg" width="50" height="50" viewBox="0 0 50 50">
    <g data-name="Group 245" transform="translate(-125 -696)">
        <rect data-name="Rectangle 121" width="50" height="50" rx="10" transform="translate(125 696)" style="fill:#fff"/>
        <path data-name="Icon awesome-google" d="M25.626 13.89c0 7.431-5.088 12.719-12.6 12.719a13.023 13.023 0 0 1 0-26.046 12.524 12.524 0 0 1 8.733 3.408l-3.548 3.408C13.575 2.9 4.952 6.265 4.952 13.586a8.158 8.158 0 0 0 8.071 8.223c5.157 0 7.089-3.7 7.394-5.614h-7.394v-4.479h12.4a11.417 11.417 0 0 1 .203 2.174z" transform="translate(137.343 707.852)" style="fill:#002333"/>
    </g>
</svg>
